<svg width="49" height="31" viewBox="0 0 49 31" fill="none" xmlns="http://www.w3.org/2000/svg">
<path d="M28.0559 9.45C27.6892 8.78333 27.2559 8.7 26.7559 9.2L15.3059 20.45L11.4559 16.55L28.0559 0.199997V9.45ZM12.0059 16H38.5059C41.9392 16 44.3059 16.7333 45.6059 18.2C46.9059 19.6667 47.6225 21.4833 47.7559 23.65C47.9225 25.7833 48.0059 27.85 48.0059 29.85C48.0059 30.4833 47.6725 30.8333 47.0059 30.9C46.3392 30.9667 46.0059 31 46.0059 31H0.00585939L3.00586 26H43.0059C43.0392 24.6 42.7559 23.4167 42.1559 22.45C41.5892 21.4833 40.3725 21 38.5059 21H7.00586L12.0059 16Z" fill="#24324F"/>
</svg>
